<?xml version="1.0" encoding="UTF-8" standalone="no"?>
<!-- Created with Inkscape (http://www.inkscape.org/) -->

<svg
   xmlns:dc="http://purl.org/dc/elements/1.1/"
   xmlns:cc="http://creativecommons.org/ns#"
   xmlns:rdf="http://www.w3.org/1999/02/22-rdf-syntax-ns#"
   xmlns:svg="http://www.w3.org/2000/svg"
   xmlns="http://www.w3.org/2000/svg"
   xmlns:sodipodi="http://sodipodi.sourceforge.net/DTD/sodipodi-0.dtd"
   xmlns:inkscape="http://www.inkscape.org/namespaces/inkscape"
   id="svg2985"
   version="1.1"
   inkscape:version="0.48.3.1 r9886"
   width="32"
   height="32"
   sodipodi:docname="brush.svg">
  <metadata
     id="metadata2991">
    <rdf:RDF>
      <cc:Work
         rdf:about="">
        <dc:format>image/svg+xml</dc:format>
        <dc:type
           rdf:resource="http://purl.org/dc/dcmitype/StillImage" />
        <dc:title></dc:title>
      </cc:Work>
    </rdf:RDF>
  </metadata>
  <defs
     id="defs2989" />
  <sodipodi:namedview
     pagecolor="#ffffff"
     bordercolor="#666666"
     borderopacity="1"
     objecttolerance="10"
     gridtolerance="10"
     guidetolerance="10"
     inkscape:pageopacity="0"
     inkscape:pageshadow="2"
     inkscape:window-width="1920"
     inkscape:window-height="1058"
     id="namedview2987"
     showgrid="false"
     inkscape:zoom="11.313708"
     inkscape:cx="11.411746"
     inkscape:cy="17.463729"
     inkscape:window-x="-8"
     inkscape:window-y="-8"
     inkscape:window-maximized="1"
     inkscape:current-layer="svg2985" />
  <path
     style="fill:none;stroke:#000000;stroke-width:1px;stroke-linecap:butt;stroke-linejoin:miter;stroke-opacity:1"
     d="m 33.873736,37.357941 -4.107002,4.925437 -27.8525207,0"
     id="path3838"
     inkscape:connector-curvature="0" />
  <g
     id="g3848"
     transform="matrix(0.84816705,0,0,0.84816705,2.429327,0.0481871)">
    <rect
       transform="matrix(0.70710678,-0.70710678,0.70710678,0.70710678,0,0)"
       y="21.875261"
       x="-15.071068"
       height="16"
       width="16"
       id="rect4135"
       style="color:#000000;fill:#bebebe;fill-opacity:1;fill-rule:evenodd;stroke:none;visibility:visible;display:inline;overflow:visible;enable-background:accumulate" />
    <path
       inkscape:connector-curvature="0"
       id="path3769"
       d="m 31.217836,15.999999 c 0,8.385137 -6.813257,15.182633 -15.217838,15.182633 -8.4045789,0 -15.21783347,-6.797496 -15.21783347,-15.182633 0,-8.3851345 6.81325457,-15.1826298 15.21783347,-15.1826298 8.404581,0 15.217838,6.7974953 15.217838,15.1826298 z"
       style="fill:#f1f1f1;fill-opacity:1;stroke:#bebebe;stroke-width:1.17901301px;stroke-linecap:butt;stroke-linejoin:miter;stroke-opacity:1" />
    <path
       sodipodi:nodetypes="cccccccccccccccsscssccccccccccccccccccccccccccccsssscscccsssssccccccccccccccccccccc"
       inkscape:connector-curvature="0"
       d="m 13.510982,14.448681 -0.252071,-0.227479 -0.599333,0.765188 0.06162,0.0481 -1.74263,2.224875 0.161709,0.126227 c -1.4088643,1.9366 -2.9856111,3.489792 -4.6985353,5.311704 l 6.1721113,4.312259 c 1.261459,-1.881807 2.519694,-3.771574 3.892102,-5.435633 l 0.135068,0.105435 1.742631,-2.224874 0.04419,0.03449 0.599332,-0.765188 -0.273023,-0.213115 0.194573,-0.243193 c -0.707225,-0.750312 -1.510929,-3.123587 0.41638,-5.045003 2.842603,-2.833913 4.424488,-3.2729018 4.87715,-6.3888074 0.03743,-0.2576155 0.02414,-0.8402242 0.02414,-0.8402242 0,0 -0.551194,0.160376 -0.796786,0.254905 -3.035321,1.1683056 -3.003791,2.8330341 -5.067461,6.2609126 -1.403089,2.330613 -3.789619,2.175017 -4.68959,1.670789 l -0.200612,0.275727 m -1.995986,3.223062 -1.218819,1.734077 1.387908,-1.60209 0.336455,0.262631 -1.012341,1.409865 1.139322,-1.310748 0.577808,0.451025 -0.956671,1.404283 1.115442,-1.280349 0.355459,0.277462 -1.811952,2.548401 2.065958,-2.350129 0.30471,0.237851 -1.571935,2.229084 1.819549,-2.035803 0.768367,0.599772 -1.14252,1.563007 1.275895,-1.458898 0.501575,0.391519 -1.095068,1.541792 1.253795,-1.417893 0.296796,0.231672 -1.188026,1.627798 1.273738,-1.560893 0.230017,0.179546 c -1.241196,1.652045 -2.390195,3.225751 -3.327765,4.626688 -0.07326,0.01234 -0.258262,0.100723 -0.595485,-0.117927 -0.209983,-0.136149 -0.0729,-0.515645 -0.33475,-0.745417 -0.365148,-0.320422 -0.466917,0.210011 -1.044995,-0.07904 -0.445617,-0.22281 0.361386,-1.198945 -0.287647,-1.570865 -0.24348,-0.139522 -1.3674496,0.905223 -2.0584961,-0.246039 0,0 -0.3485764,-0.589172 -0.7235544,-0.868126 C 7.6261649,22.185524 7.2839899,22.314715 7.2839899,22.314715 8.7132185,20.784141 9.9174523,19.498969 11.38784,17.57882 z M 23.181656,7.4010444 c 0.207045,0.1616147 0.243644,0.4601477 0.08175,0.6668394 -0.16189,0.2066916 -0.460933,0.243229 -0.667979,0.081614 -0.207044,-0.1616145 -0.243644,-0.4601475 -0.08175,-0.6668392 0.161892,-0.2066916 0.460936,-0.2432291 0.66798,-0.081614 z M 12.95881,15.35519 c 0.0029,0.0018 0.0054,0.0042 0.0081,0.0063 l 5.026156,3.923308 c 0.04412,0.03445 0.05229,0.09731 0.01779,0.141355 l -0.01946,0.02485 c -0.0345,0.04405 -0.09798,0.0518 -0.142104,0.01737 l -5.026165,-3.923276 c -0.04412,-0.03445 -0.05189,-0.09781 -0.01739,-0.141862 l 0.01946,-0.02485 c 0.03235,-0.0413 0.09014,-0.05056 0.133574,-0.02319 z m -1.048534,1.338697 c 0.0029,0.0018 0.0054,0.0042 0.0081,0.0063 l 5.026155,3.923308 c 0.04412,0.03445 0.05229,0.09731 0.01779,0.141355 l -0.01946,0.02485 c -0.0345,0.04405 -0.09798,0.0518 -0.142105,0.01737 l -5.026154,-3.923308 c -0.04412,-0.03445 -0.05189,-0.09781 -0.01739,-0.141862 l 0.01946,-0.02485 c 0.03235,-0.0413 0.09014,-0.05056 0.133579,-0.0232 z"
       style="fill:#000000;fill-opacity:1;stroke:none"
       id="path3816" />
  </g>
</svg>
