<?xml version="1.0" encoding="UTF-8" standalone="no"?>
<!-- Created with Inkscape (http://www.inkscape.org/) -->

<svg
   xmlns:dc="http://purl.org/dc/elements/1.1/"
   xmlns:cc="http://creativecommons.org/ns#"
   xmlns:rdf="http://www.w3.org/1999/02/22-rdf-syntax-ns#"
   xmlns:svg="http://www.w3.org/2000/svg"
   xmlns="http://www.w3.org/2000/svg"
   xmlns:sodipodi="http://sodipodi.sourceforge.net/DTD/sodipodi-0.dtd"
   xmlns:inkscape="http://www.inkscape.org/namespaces/inkscape"
   id="svg2985"
   version="1.1"
   inkscape:version="0.48.3.1 r9886"
   width="32"
   height="32"
   sodipodi:docname="brush2.svg">
  <metadata
     id="metadata2991">
    <rdf:RDF>
      <cc:Work
         rdf:about="">
        <dc:format>image/svg+xml</dc:format>
        <dc:type
           rdf:resource="http://purl.org/dc/dcmitype/StillImage" />
        <dc:title></dc:title>
      </cc:Work>
    </rdf:RDF>
  </metadata>
  <defs
     id="defs2989" />
  <sodipodi:namedview
     pagecolor="#ffffff"
     bordercolor="#666666"
     borderopacity="1"
     objecttolerance="10"
     gridtolerance="10"
     guidetolerance="10"
     inkscape:pageopacity="0"
     inkscape:pageshadow="2"
     inkscape:window-width="1920"
     inkscape:window-height="1058"
     id="namedview2987"
     showgrid="false"
     inkscape:zoom="11.313708"
     inkscape:cx="1.477804"
     inkscape:cy="10.63073"
     inkscape:window-x="-8"
     inkscape:window-y="-8"
     inkscape:window-maximized="1"
     inkscape:current-layer="svg2985" />
  <path
     style="fill:none;stroke:#000000;stroke-width:1px;stroke-linecap:butt;stroke-linejoin:miter;stroke-opacity:1"
     d="m 33.873736,37.357941 -4.107002,4.925437 -27.8525207,0"
     id="path3838"
     inkscape:connector-curvature="0" />
  <rect
     style="color:#000000;fill:#bebebe;fill-opacity:1;fill-rule:evenodd;stroke:none;visibility:visible;display:inline;overflow:visible;enable-background:accumulate"
     id="rect4135"
     width="13.570673"
     height="13.570673"
     x="-42.474064"
     y="-18.694258"
     transform="matrix(0.70710678,-0.70710678,0.70710678,0.70710678,0,0)" />
  <path
     style="fill:#f1f1f1;fill-opacity:1;stroke:#bebebe;stroke-width:1px;stroke-linecap:butt;stroke-linejoin:miter;stroke-opacity:1"
     d="m -20.855373,8.2271699 c 0,7.1119971 -5.77878,12.8774091 -12.907269,12.8774091 -7.128487,0 -12.907265,-5.765412 -12.907265,-12.8774091 0,-7.1119948 5.778778,-12.8774064 12.907265,-12.8774064 7.128489,0 12.907269,5.7654116 12.907269,12.8774064 z"
     id="path3769"
     inkscape:connector-curvature="0" />
  <path
     id="path3816"
     style="fill:#000000;fill-opacity:1;stroke:none"
     d="m -35.873743,6.911393 -0.213799,-0.1929402 -0.508334,0.6490073 0.05226,0.040797 -1.478041,1.8870657 0.137156,0.1070616 c -1.194952,1.6425598 -2.532297,2.9599268 -3.985143,4.5052118 l 5.234981,3.657516 c 1.069928,-1.596086 2.137122,-3.198924 3.301153,-4.610324 l 0.11456,0.08943 1.478043,-1.887065 0.03748,0.02925 0.508334,-0.649008 -0.231569,-0.180757 0.16503,-0.206268 c -0.599845,-0.6363899 -1.28152,-2.6493236 0.35316,-4.2790053 2.411002,-2.4036317 3.752705,-2.7759675 4.136638,-5.41877596 0.03175,-0.21850098 0.02048,-0.71265048 0.02048,-0.71265048 0,0 -0.467505,0.13602564 -0.675808,0.21620202 -2.574459,0.99091832 -2.547717,2.40288622 -4.298054,5.31029982 -1.190053,1.9767491 -3.21423,1.8447777 -3.977555,1.4171081 l -0.170153,0.2338626 m -1.692929,2.733695 -1.033762,1.4707872 1.177177,-1.3588402 0.28537,0.222755 -0.858634,1.1958012 0.966336,-1.111733 0.490077,0.382544 -0.811417,1.191067 0.946082,-1.08595 0.301488,0.235334 -1.536838,2.16147 1.752278,-1.993302 0.258445,0.201737 -1.333264,1.890636 1.543282,-1.726701 0.651703,0.508707 -0.969048,1.325691 1.082173,-1.23739 0.425419,0.332074 -0.928801,1.307697 1.063428,-1.20261 0.251733,0.196496 -1.007645,1.380645 1.080343,-1.323898 0.195092,0.152285 c -1.052741,1.40121 -2.027284,2.735976 -2.8225,3.924204 -0.06214,0.01047 -0.219049,0.08543 -0.505071,-0.100021 -0.178101,-0.115477 -0.06183,-0.437354 -0.283924,-0.632239 -0.309706,-0.271771 -0.396023,0.178125 -0.88633,-0.06704 -0.377958,-0.18898 0.306516,-1.016905 -0.243973,-1.332356 -0.206512,-0.118338 -1.159826,0.767781 -1.745948,-0.208682 0,0 -0.295651,-0.499716 -0.613695,-0.736316 -0.188773,-0.140431 -0.478995,-0.03085 -0.478995,-0.03085 1.212225,-1.298183 2.233616,-2.388223 3.480751,-4.0168302 z m 9.894458,-8.7172859 c 0.175609,0.1370763 0.206651,0.3902821 0.06934,0.5655912 -0.137309,0.175309 -0.390948,0.2062988 -0.566557,0.069222 -0.175608,-0.1370761 -0.206651,-0.3902819 -0.06934,-0.565591 0.137311,-0.17530903 0.390951,-0.20629894 0.566559,-0.0692223 z m -8.670681,6.7464442 c 0.0025,0.00153 0.0046,0.00356 0.0069,0.00534 l 4.26302,3.3276204 c 0.03742,0.02922 0.04435,0.08254 0.01509,0.119893 l -0.01651,0.02108 c -0.02926,0.03736 -0.0831,0.04394 -0.120528,0.01473 l -4.263027,-3.327593 c -0.03742,-0.029219 -0.04401,-0.082959 -0.01475,-0.1203227 l 0.01651,-0.021077 c 0.02744,-0.035029 0.07645,-0.042883 0.113293,-0.019669 z m -0.889332,1.1354387 c 0.0025,0.00153 0.0046,0.00356 0.0069,0.00534 l 4.263019,3.3276208 c 0.03742,0.02922 0.04435,0.08254 0.01509,0.119892 l -0.01651,0.02108 c -0.02926,0.03736 -0.0831,0.04393 -0.120528,0.01473 l -4.263019,-3.3276205 c -0.03742,-0.029219 -0.04401,-0.082959 -0.01475,-0.1203227 l 0.0165,-0.021077 c 0.02744,-0.035029 0.07645,-0.042883 0.113297,-0.019678 z"
     inkscape:connector-curvature="0"
     sodipodi:nodetypes="cccccccccccccccsscssccccccccccccccccccccccccccccsssscscccsssssccccccccccccccccccccc" />
  <rect
     style="color:#000000;fill:#bebebe;fill-opacity:1;fill-rule:evenodd;stroke:none;visibility:visible;display:inline;overflow:visible;enable-background:accumulate"
     id="rect4135-9"
     width="13.570673"
     height="13.570673"
     x="-47.671383"
     y="43.990189" />
  <path
     style="fill:#f1f1f1;fill-opacity:1;stroke:#bebebe;stroke-width:1px;stroke-linecap:butt;stroke-linejoin:miter;stroke-opacity:1"
     d="m -25.761781,53.75496 c -5.028941,5.028941 -13.191918,5.019488 -18.232521,-0.02111 -5.040601,-5.040602 -5.050052,-13.203577 -0.02111,-18.232518 5.02894,-5.02894 13.191914,-5.019488 18.232516,0.02111 5.040603,5.040603 5.050055,13.203579 0.02112,18.232519 z"
     id="path3769-9"
     inkscape:connector-curvature="0" />
  <path
     id="path3816-3"
     style="fill:#000000;fill-opacity:1;stroke:none"
     d="m -37.019571,43.152177 -0.213799,-0.192941 -0.508334,0.649008 0.05226,0.0408 -1.478041,1.887066 0.137156,0.107062 c -1.194948,1.642556 -2.532292,2.959922 -3.985138,4.505208 l 5.23498,3.657516 c 1.069928,-1.596087 2.137122,-3.198925 3.301153,-4.610325 l 0.11456,0.08943 1.478043,-1.887065 0.03748,0.02925 0.508334,-0.649007 -0.231569,-0.180757 0.16503,-0.206269 c -0.599845,-0.636389 -1.28152,-2.649323 0.35316,-4.279005 2.411002,-2.403631 3.752705,-2.775967 4.136638,-5.418775 0.03175,-0.218501 0.02048,-0.712651 0.02048,-0.712651 0,0 -0.467505,0.136026 -0.675808,0.216202 -2.574459,0.990919 -2.547717,2.402886 -4.298054,5.3103 -1.190053,1.976749 -3.21423,1.844777 -3.977555,1.417108 l -0.170158,0.233862 m -1.692929,2.733695 -1.033762,1.470787 1.177177,-1.35884 0.28537,0.222755 -0.858634,1.195801 0.966336,-1.111733 0.490077,0.382545 -0.811417,1.191066 0.946082,-1.08595 0.301488,0.235334 -1.536838,2.16147 1.752278,-1.993302 0.258445,0.201738 -1.333264,1.890635 1.543282,-1.726701 0.651703,0.508707 -0.969048,1.325691 1.082173,-1.237389 0.425419,0.332073 -0.928801,1.307698 1.063428,-1.202611 0.251733,0.196497 -1.007645,1.380645 1.080343,-1.323898 0.195092,0.152285 c -1.052741,1.40121 -2.027284,2.735975 -2.8225,3.924204 -0.06214,0.01047 -0.219049,0.08543 -0.505071,-0.100022 -0.178101,-0.115477 -0.06183,-0.437353 -0.283924,-0.632238 -0.309706,-0.271771 -0.396023,0.178124 -0.88633,-0.06704 -0.377958,-0.18898 0.306516,-1.016906 -0.243973,-1.332356 -0.206512,-0.118338 -1.159826,0.76778 -1.745948,-0.208682 0,0 -0.295651,-0.499717 -0.613695,-0.736316 -0.188773,-0.140431 -0.478994,-0.03086 -0.478994,-0.03086 1.212224,-1.298182 2.233615,-2.388223 3.48075,-4.01683 z m 9.894458,-8.717285 c 0.175609,0.137076 0.206651,0.390282 0.06934,0.565591 -0.137309,0.175309 -0.390948,0.206299 -0.566557,0.06922 -0.175608,-0.137076 -0.206651,-0.390282 -0.06934,-0.565591 0.137311,-0.175309 0.390951,-0.206299 0.566559,-0.06922 z m -8.670681,6.746444 c 0.0025,0.0015 0.0046,0.0036 0.0069,0.0053 l 4.26302,3.327621 c 0.03742,0.02922 0.04435,0.08254 0.01509,0.119892 l -0.01651,0.02108 c -0.02926,0.03736 -0.0831,0.04394 -0.120528,0.01473 l -4.263027,-3.327594 c -0.03742,-0.02922 -0.04401,-0.08296 -0.01475,-0.120322 l 0.01651,-0.02108 c 0.02744,-0.03503 0.07645,-0.04288 0.113293,-0.01967 z m -0.889332,1.135438 c 0.0025,0.0015 0.0046,0.0036 0.0069,0.0053 l 4.263019,3.32762 c 0.03742,0.02922 0.04435,0.08254 0.01509,0.119893 l -0.01651,0.02108 c -0.02926,0.03736 -0.0831,0.04394 -0.120528,0.01473 l -4.263019,-3.327621 c -0.03742,-0.02922 -0.04401,-0.08296 -0.01475,-0.120323 l 0.0165,-0.02108 c 0.02744,-0.03503 0.07645,-0.04288 0.113297,-0.01968 z"
     inkscape:connector-curvature="0"
     sodipodi:nodetypes="cccccccccccccccsscssccccccccccccccccccccccccccccsssscscccsssssccccccccccccccccccccc" />
  <rect
     style="color:#000000;fill:#bebebe;fill-opacity:1;fill-rule:evenodd;stroke:none;visibility:visible;display:inline;overflow:visible;enable-background:accumulate"
     id="rect4135-9-4"
     width="13.570673"
     height="13.570673"
     x="11.546185"
     y="-2.339504"
     transform="matrix(0.70710678,0.70710678,-0.70710678,0.70710678,0,0)" />
  <path
     style="fill:#f1f1f1;fill-opacity:1;stroke:#bebebe;stroke-width:1px;stroke-linecap:butt;stroke-linejoin:miter;stroke-opacity:1"
     d="m 18.406356,28.907268 c -7.111997,0 -12.877409,-5.77878 -12.877409,-12.907269 0,-7.128487 5.765412,-12.907265 12.877409,-12.907265 7.111995,0 12.877406,5.778778 12.877406,12.907265 0,7.128489 -5.765411,12.907269 -12.877406,12.907269 z"
     id="path3769-9-0"
     inkscape:connector-curvature="0" />
  <path
     id="path3816-3-9"
     style="fill:#000000;fill-opacity:1;stroke:none"
     d="m 16.275382,14.524033 -0.213799,-0.192941 -0.508334,0.649008 0.05226,0.0408 -1.478041,1.887066 0.137156,0.107062 c -1.194948,1.642556 -2.532293,2.959922 -3.985139,4.505208 l 5.234981,3.657516 c 1.069928,-1.596087 2.137122,-3.198925 3.301153,-4.610325 l 0.11456,0.08943 1.478043,-1.887065 0.03748,0.02925 0.508334,-0.649007 -0.231569,-0.180757 0.16503,-0.206269 c -0.599845,-0.636389 -1.28152,-2.649323 0.35316,-4.279005 2.411002,-2.403631 3.752705,-2.775967 4.136638,-5.4187754 0.03175,-0.218501 0.02048,-0.7126505 0.02048,-0.7126505 0,0 -0.467505,0.1360257 -0.675808,0.2162021 -2.574459,0.9909184 -2.547717,2.4028862 -4.298054,5.3102998 -1.190053,1.976749 -3.21423,1.844777 -3.977555,1.417108 L 16.2762,14.53005 m -1.692929,2.733695 -1.033762,1.470787 1.177177,-1.35884 0.28537,0.222755 -0.858634,1.195801 0.966336,-1.111733 0.490077,0.382545 -0.811417,1.191066 0.946082,-1.08595 0.301488,0.235334 -1.536838,2.16147 1.752278,-1.993302 0.258445,0.201738 -1.333264,1.890635 1.543282,-1.726701 0.651703,0.508707 -0.969048,1.325691 1.082173,-1.237389 0.425419,0.332073 -0.928801,1.307698 1.063428,-1.202611 0.251733,0.196497 -1.007645,1.380645 1.080343,-1.323898 0.195092,0.152285 c -1.052741,1.40121 -2.027284,2.735975 -2.8225,3.924204 -0.06214,0.01047 -0.219049,0.08543 -0.505071,-0.100022 -0.178101,-0.115477 -0.06183,-0.437353 -0.283924,-0.632238 -0.309706,-0.271771 -0.396023,0.178124 -0.88633,-0.06704 -0.377958,-0.18898 0.306516,-1.016906 -0.243973,-1.332356 -0.206512,-0.118338 -1.159826,0.76778 -1.745948,-0.208682 0,0 -0.295651,-0.499717 -0.613695,-0.736316 -0.188773,-0.140431 -0.478994,-0.03086 -0.478994,-0.03086 1.212224,-1.298182 2.233615,-2.388223 3.48075,-4.01683 z M 24.477729,8.5464598 C 24.653338,8.683536 24.68438,8.9367419 24.547069,9.112051 24.40976,9.28736 24.156121,9.3183498 23.980512,9.181273 23.804904,9.0441969 23.773861,8.790991 23.911172,8.615682 24.048483,8.4403729 24.302123,8.409383 24.477731,8.54646 z m -8.670681,6.7464442 c 0.0025,0.0015 0.0046,0.0036 0.0069,0.0053 l 4.26302,3.327621 c 0.03742,0.02922 0.04435,0.08254 0.01509,0.119892 l -0.01651,0.02108 c -0.02926,0.03736 -0.0831,0.04394 -0.120528,0.01473 l -4.263027,-3.327594 c -0.03742,-0.02922 -0.04401,-0.08296 -0.01475,-0.120322 l 0.01651,-0.02108 c 0.02744,-0.03503 0.07645,-0.04288 0.113293,-0.01967 z m -0.889332,1.135438 c 0.0025,0.0015 0.0046,0.0036 0.0069,0.0053 l 4.263019,3.32762 c 0.03742,0.02922 0.04435,0.08254 0.01509,0.119893 l -0.01651,0.02108 c -0.02926,0.03736 -0.0831,0.04394 -0.120528,0.01473 l -4.263019,-3.327621 c -0.03742,-0.02922 -0.04401,-0.08296 -0.01475,-0.120323 l 0.0165,-0.02108 c 0.02744,-0.03503 0.07645,-0.04288 0.113297,-0.01968 z"
     inkscape:connector-curvature="0"
     sodipodi:nodetypes="cccccccccccccccsscssccccccccccccccccccccccccccccsssscscccsssssccccccccccccccccccccc" />
</svg>
