<?xml version="1.0" encoding="UTF-8" standalone="no"?>
<!-- Created with Inkscape (http://www.inkscape.org/) -->

<svg
   xmlns:dc="http://purl.org/dc/elements/1.1/"
   xmlns:cc="http://creativecommons.org/ns#"
   xmlns:rdf="http://www.w3.org/1999/02/22-rdf-syntax-ns#"
   xmlns:svg="http://www.w3.org/2000/svg"
   xmlns="http://www.w3.org/2000/svg"
   xmlns:sodipodi="http://sodipodi.sourceforge.net/DTD/sodipodi-0.dtd"
   xmlns:inkscape="http://www.inkscape.org/namespaces/inkscape"
   id="svg2985"
   version="1.1"
   inkscape:version="0.91 r13725"
   width="32"
   height="32"
   sodipodi:docname="brush3_hover.svg">
  <metadata
     id="metadata2991">
    <rdf:RDF>
      <cc:Work
         rdf:about="">
        <dc:format>image/svg+xml</dc:format>
        <dc:type
           rdf:resource="http://purl.org/dc/dcmitype/StillImage" />
        <dc:title></dc:title>
      </cc:Work>
    </rdf:RDF>
  </metadata>
  <defs
     id="defs2989" />
  <sodipodi:namedview
     pagecolor="#ffffff"
     bordercolor="#666666"
     borderopacity="1"
     objecttolerance="10"
     gridtolerance="10"
     guidetolerance="10"
     inkscape:pageopacity="0"
     inkscape:pageshadow="2"
     inkscape:window-width="1920"
     inkscape:window-height="1058"
     id="namedview2987"
     showgrid="false"
     inkscape:zoom="11.313708"
     inkscape:cx="7.0719508"
     inkscape:cy="16.612732"
     inkscape:window-x="-8"
     inkscape:window-y="-8"
     inkscape:window-maximized="1"
     inkscape:current-layer="svg2985" />
  <rect
     style="color:#000000;clip-rule:nonzero;display:inline;overflow:visible;visibility:visible;opacity:1;isolation:auto;mix-blend-mode:normal;color-interpolation:sRGB;color-interpolation-filters:linearRGB;solid-color:#000000;solid-opacity:1;fill:#70c0e7;fill-opacity:1;fill-rule:evenodd;stroke:none;stroke-width:1;stroke-linecap:round;stroke-linejoin:miter;stroke-miterlimit:4;stroke-dasharray:none;stroke-dashoffset:0;stroke-opacity:1;color-rendering:auto;image-rendering:auto;shape-rendering:auto;text-rendering:auto;enable-background:accumulate"
     id="rect4135"
     width="16"
     height="16"
     x="-74.46804"
     y="-24.263456"
     transform="matrix(0.70710678,-0.70710678,0.70710678,0.70710678,0,0)" />
  <path
     style="fill:none;stroke:#000000;stroke-width:1px;stroke-linecap:butt;stroke-linejoin:miter;stroke-opacity:1"
     d="m 33.873736,37.357941 -4.107002,4.925437 -27.8525207,0"
     id="path3838"
     inkscape:connector-curvature="0" />
  <path
     style="fill:#e5f3fb;fill-opacity:1;stroke:#70c0e7;stroke-width:1px;stroke-linecap:butt;stroke-linejoin:miter;stroke-opacity:1"
     d="m -24.657164,12.249999 c 0,8.385137 -6.813257,15.182633 -15.217838,15.182633 -8.404579,0 -15.217833,-6.797496 -15.217833,-15.182633 0,-8.3851345 6.813254,-15.1826298 15.217833,-15.1826298 8.404581,0 15.217838,6.7974953 15.217838,15.1826298 z"
     id="path3769"
     inkscape:connector-curvature="0" />
  <path
     id="path3816"
     style="fill:#000000;fill-opacity:1;stroke:none"
     d="m -42.364018,10.698681 -0.252071,-0.227479 -0.599333,0.765188 0.06162,0.0481 -1.74263,2.224875 0.161709,0.126227 c -1.408864,1.9366 -2.985611,3.489792 -4.698535,5.311704 l 6.172111,4.312259 c 1.261459,-1.881807 2.519694,-3.771574 3.892102,-5.435633 l 0.135068,0.105435 1.742631,-2.224874 0.04419,0.03449 0.599332,-0.765188 -0.273023,-0.213115 0.194573,-0.243193 c -0.707225,-0.750312 -1.510929,-3.123587 0.41638,-5.045003 2.842603,-2.833913 4.424488,-3.2729018 4.87715,-6.3888074 0.03743,-0.2576155 0.02414,-0.8402242 0.02414,-0.8402242 0,0 -0.551194,0.160376 -0.796786,0.254905 -3.035321,1.1683056 -3.003791,2.8330341 -5.067461,6.2609126 -1.403089,2.330613 -3.789619,2.175017 -4.68959,1.670789 l -0.200612,0.275727 m -1.995986,3.223062 -1.218819,1.734077 1.387908,-1.60209 0.336455,0.262631 -1.012341,1.409865 1.139322,-1.310748 0.577808,0.451025 -0.956671,1.404283 1.115442,-1.280349 0.355459,0.277462 -1.811952,2.548401 2.065958,-2.350129 0.30471,0.237851 -1.571935,2.229084 1.819549,-2.035803 0.768367,0.599772 -1.14252,1.563007 1.275895,-1.458898 0.501575,0.391519 -1.095068,1.541792 1.253795,-1.417893 0.296796,0.231672 -1.188026,1.627798 1.273738,-1.560893 0.230017,0.179546 c -1.241196,1.652045 -2.390195,3.225751 -3.327765,4.626688 -0.07326,0.01234 -0.258262,0.100723 -0.595485,-0.117927 -0.209983,-0.136149 -0.0729,-0.515645 -0.33475,-0.745417 -0.365148,-0.320422 -0.466917,0.210011 -1.044995,-0.07904 -0.445617,-0.22281 0.361386,-1.198945 -0.287647,-1.570865 -0.24348,-0.139522 -1.36745,0.905223 -2.058496,-0.246039 0,0 -0.348577,-0.589172 -0.723555,-0.868126 -0.222565,-0.16557 -0.56474,-0.03638 -0.56474,-0.03638 1.429228,-1.530574 2.633462,-2.815746 4.10385,-4.735895 z M -32.693344,3.6510444 c 0.207045,0.1616147 0.243644,0.4601477 0.08175,0.6668394 -0.16189,0.2066916 -0.460933,0.243229 -0.667979,0.081614 -0.207044,-0.1616145 -0.243644,-0.4601475 -0.08175,-0.6668392 0.161892,-0.2066916 0.460936,-0.2432291 0.66798,-0.081614 z M -42.91619,11.60519 c 0.0029,0.0018 0.0054,0.0042 0.0081,0.0063 l 5.026156,3.923308 c 0.04412,0.03445 0.05229,0.09731 0.01779,0.141355 l -0.01946,0.02485 c -0.0345,0.04405 -0.09798,0.0518 -0.142104,0.01737 l -5.026165,-3.923276 c -0.04412,-0.03445 -0.05189,-0.09781 -0.01739,-0.141862 l 0.01946,-0.02485 c 0.03235,-0.0413 0.09014,-0.05056 0.133574,-0.02319 z m -1.048534,1.338697 c 0.0029,0.0018 0.0054,0.0042 0.0081,0.0063 l 5.026155,3.923308 c 0.04412,0.03445 0.05229,0.09731 0.01779,0.141355 l -0.01946,0.02485 c -0.0345,0.04405 -0.09798,0.0518 -0.142105,0.01737 l -5.026154,-3.923308 c -0.04412,-0.03445 -0.05189,-0.09781 -0.01739,-0.141862 l 0.01946,-0.02485 c 0.03235,-0.0413 0.09014,-0.05056 0.133579,-0.0232 z"
     inkscape:connector-curvature="0"
     sodipodi:nodetypes="cccccccccccccccsscssccccccccccccccccccccccccccccsssscscccsssssccccccccccccccccccccc" />
  <g
     id="g4161"
     transform="matrix(0,1,-1,0,32.025215,5.4765229e-7)">
    <rect
       transform="matrix(0.70710678,-0.70710678,0.70710678,0.70710678,0,0)"
       y="20.305742"
       x="-11.099063"
       height="13.570673"
       width="13.570673"
       id="rect4135-9"
       style="color:#000000;display:inline;overflow:visible;visibility:visible;fill:#70c0e7;fill-opacity:1;fill-rule:evenodd;stroke:none;enable-background:accumulate" />
    <path
       inkscape:connector-curvature="0"
       id="path3769-9"
       d="m 28.907267,13.618859 c 0,7.111997 -5.77878,12.877409 -12.907269,12.877409 -7.1284868,0 -12.9072648,-5.765412 -12.9072648,-12.877409 0,-7.1119945 5.778778,-12.87740601 12.9072648,-12.87740601 7.128489,0 12.907269,5.76541151 12.907269,12.87740601 z"
       style="fill:#e5f3fb;fill-opacity:1;stroke:#70c0e7;stroke-width:1px;stroke-linecap:butt;stroke-linejoin:miter;stroke-opacity:1" />
  </g>
  <path
     id="path3816-3"
     style="fill:#000000;fill-opacity:1;stroke:none"
     d="m 16.275382,14.524033 -0.213799,-0.192941 -0.508334,0.649008 0.05226,0.0408 -1.478041,1.887066 0.137156,0.107062 c -1.194948,1.642556 -2.532293,2.959922 -3.985139,4.505208 l 5.234981,3.657516 c 1.069928,-1.596087 2.137122,-3.198925 3.301153,-4.610325 l 0.11456,0.08943 1.478043,-1.887065 0.03748,0.02925 0.508334,-0.649007 -0.231569,-0.180757 0.16503,-0.206269 c -0.599845,-0.636389 -1.28152,-2.649323 0.35316,-4.279005 2.411002,-2.403631 3.752705,-2.775967 4.136638,-5.4187757 0.03175,-0.218501 0.02048,-0.7126505 0.02048,-0.7126505 0,0 -0.467505,0.1360257 -0.675808,0.2162021 -2.574459,0.9909184 -2.547717,2.4028862 -4.298054,5.3103001 -1.190053,1.976749 -3.21423,1.844777 -3.977555,1.417108 L 16.2762,14.53005 m -1.692929,2.733695 -1.033762,1.470787 1.177177,-1.35884 0.28537,0.222755 -0.858634,1.195801 0.966336,-1.111733 0.490077,0.382545 -0.811417,1.191066 0.946082,-1.08595 0.301488,0.235334 -1.536838,2.16147 1.752278,-1.993302 0.258445,0.201738 -1.333264,1.890635 1.543282,-1.726701 0.651703,0.508707 -0.969048,1.325691 1.082173,-1.237389 0.425419,0.332073 -0.928801,1.307698 1.063428,-1.202611 0.251733,0.196497 -1.007645,1.380645 1.080343,-1.323898 0.195092,0.152285 c -1.052741,1.40121 -2.027284,2.735975 -2.8225,3.924204 -0.06214,0.01047 -0.219049,0.08543 -0.505071,-0.100022 -0.178101,-0.115477 -0.06183,-0.437353 -0.283924,-0.632238 -0.309706,-0.271771 -0.396023,0.178124 -0.88633,-0.06704 -0.377958,-0.18898 0.306516,-1.016906 -0.243973,-1.332356 -0.206512,-0.118338 -1.159826,0.76778 -1.745948,-0.208682 0,0 -0.295651,-0.499717 -0.613695,-0.736316 -0.188773,-0.140431 -0.478994,-0.03086 -0.478994,-0.03086 1.212224,-1.298182 2.233615,-2.388223 3.48075,-4.01683 z m 9.894458,-8.7172855 c 0.175609,0.1370762 0.206651,0.3902821 0.06934,0.5655912 -0.137309,0.175309 -0.390948,0.2062988 -0.566557,0.069222 -0.175608,-0.1370761 -0.206651,-0.390282 -0.06934,-0.565591 0.137311,-0.1753091 0.390951,-0.206299 0.566559,-0.069222 z m -8.670681,6.7464445 c 0.0025,0.0015 0.0046,0.0036 0.0069,0.0053 l 4.26302,3.327621 c 0.03742,0.02922 0.04435,0.08254 0.01509,0.119892 l -0.01651,0.02108 c -0.02926,0.03736 -0.0831,0.04394 -0.120528,0.01473 l -4.263027,-3.327594 c -0.03742,-0.02922 -0.04401,-0.08296 -0.01475,-0.120322 l 0.01651,-0.02108 c 0.02744,-0.03503 0.07645,-0.04288 0.113293,-0.01967 z m -0.889332,1.135438 c 0.0025,0.0015 0.0046,0.0036 0.0069,0.0053 l 4.263019,3.32762 c 0.03742,0.02922 0.04435,0.08254 0.01509,0.119893 l -0.01651,0.02108 c -0.02926,0.03736 -0.0831,0.04394 -0.120528,0.01473 l -4.263019,-3.327621 c -0.03742,-0.02922 -0.04401,-0.08296 -0.01475,-0.120323 l 0.0165,-0.02108 c 0.02744,-0.03503 0.07645,-0.04288 0.113297,-0.01968 z"
     inkscape:connector-curvature="0"
     sodipodi:nodetypes="cccccccccccccccsscssccccccccccccccccccccccccccccsssscscccsssssccccccccccccccccccccc" />
</svg>
